<svg width="24" height="24" viewBox="0 0 24 24" fill="none" xmlns="http://www.w3.org/2000/svg">
<g clip-path="url(#clip0_2813_9555)">
<path d="M12 24C18.6353 24 24 18.6353 24 12C24 5.36471 18.6353 0 12 0C5.36471 0 0 5.36471 0 12C0 18.6353 5.36471 24 12 24Z" fill="#0C0C0C"/>
<path d="M9.10547 9.95294H10.3761V8.75294C10.3761 8.18823 10.3761 7.41176 10.7996 6.91765C11.1525 6.35294 11.7172 6 12.7055 6C14.2584 6 14.9643 6.21176 14.9643 6.21176L14.6819 8.04706C14.6819 8.04706 14.1878 7.90588 13.6937 7.90588C13.1996 7.90588 12.7761 8.04706 12.7761 8.54118V9.95294H14.7525L14.6114 11.7176H12.7055V17.9294H10.3761V11.7176H9.10547V9.95294V9.95294Z" fill="#F6F8FB"/>
</g>
<defs>
<clipPath id="clip0_2813_9555">
<rect width="24" height="24" fill="white"/>
</clipPath>
</defs>
</svg>
