<svg width="24" height="24" viewBox="0 0 24 24" fill="none" xmlns="http://www.w3.org/2000/svg">
<g clip-path="url(#clip0_2813_9562)">
<path d="M12 24C18.6353 24 24 18.6353 24 12C24 5.36471 18.6353 0 12 0C5.36471 0 0 5.36471 0 12C0 18.6353 5.36471 24 12 24Z" fill="#0C0C0C"/>
<path d="M14.3294 12.0006L10.3765 14.3301V9.74182L14.3294 12.0006ZM18 14.1183V9.883C18 9.883 18 7.83594 15.9529 7.83594H8.04706C8.04706 7.83594 6 7.83594 6 9.883V14.1183C6 14.1183 6 16.1653 8.04706 16.1653H15.8824C15.9529 16.2359 18 16.2359 18 14.1183Z" fill="#F6F8FB"/>
</g>
<defs>
<clipPath id="clip0_2813_9562">
<rect width="24" height="24" fill="white"/>
</clipPath>
</defs>
</svg>
