<svg width="15" height="14" viewBox="0 0 15 14" fill="none" xmlns="http://www.w3.org/2000/svg">
<path d="M10.368 7.66683C10.868 7.66683 11.308 7.3935 11.5346 6.98016L13.9213 2.6535C14.168 2.2135 13.848 1.66683 13.3413 1.66683H3.47464L2.84797 0.333496H0.667969V1.66683H2.0013L4.4013 6.72683L3.5013 8.3535C3.01464 9.24683 3.65464 10.3335 4.66797 10.3335H12.668V9.00016H4.66797L5.4013 7.66683H10.368ZM4.10797 3.00016H12.208L10.368 6.3335H5.68797L4.10797 3.00016ZM4.66797 11.0002C3.93464 11.0002 3.3413 11.6002 3.3413 12.3335C3.3413 13.0668 3.93464 13.6668 4.66797 13.6668C5.4013 13.6668 6.0013 13.0668 6.0013 12.3335C6.0013 11.6002 5.4013 11.0002 4.66797 11.0002ZM11.3346 11.0002C10.6013 11.0002 10.008 11.6002 10.008 12.3335C10.008 13.0668 10.6013 13.6668 11.3346 13.6668C12.068 13.6668 12.668 13.0668 12.668 12.3335C12.668 11.6002 12.068 11.0002 11.3346 11.0002Z" fill="#1071FF"/>
</svg>
