<svg width="25" height="24" viewBox="0 0 25 24" fill="none" xmlns="http://www.w3.org/2000/svg">
<g clip-path="url(#clip0_2932_34598)">
<path d="M20.5 8H17.5V4H3.5C2.4 4 1.5 4.9 1.5 6V17H3.5C3.5 18.66 4.84 20 6.5 20C8.16 20 9.5 18.66 9.5 17H15.5C15.5 18.66 16.84 20 18.5 20C20.16 20 21.5 18.66 21.5 17H23.5V12L20.5 8ZM20 9.5L21.96 12H17.5V9.5H20ZM6.5 18C5.95 18 5.5 17.55 5.5 17C5.5 16.45 5.95 16 6.5 16C7.05 16 7.5 16.45 7.5 17C7.5 17.55 7.05 18 6.5 18ZM8.72 15C8.17 14.39 7.39 14 6.5 14C5.61 14 4.83 14.39 4.28 15H3.5V6H15.5V15H8.72ZM18.5 18C17.95 18 17.5 17.55 17.5 17C17.5 16.45 17.95 16 18.5 16C19.05 16 19.5 16.45 19.5 17C19.5 17.55 19.05 18 18.5 18Z" fill="#1071FF"/>
</g>
<defs>
<clipPath id="clip0_2932_34598">
<rect width="24" height="24" fill="white" transform="translate(0.5)"/>
</clipPath>
</defs>
</svg>
