<svg width="44" height="44" viewBox="0 0 44 44" fill="none" xmlns="http://www.w3.org/2000/svg">
<rect x="0.5" y="0.5" width="43" height="43" rx="7.5" stroke="#1071FF"/>
<g clip-path="url(#clip0_2984_44453)">
<path d="M20 13H15C13.9 13 13 13.9 13 15V29C13 30.1 13.9 31 15 31H20V33H22V11H20V13ZM20 28H15L20 22V28ZM29 13H24V15H29V28L24 22V31H29C30.1 31 31 30.1 31 29V15C31 13.9 30.1 13 29 13Z" fill="#1071FF"/>
</g>
<defs>
<clipPath id="clip0_2984_44453">
<rect width="24" height="24" fill="white" transform="translate(10 10)"/>
</clipPath>
</defs>
</svg>
