<svg width="171" height="99" viewBox="0 0 171 99" fill="none" xmlns="http://www.w3.org/2000/svg">
<path d="M161.603 0.0712891H9.39852C4.35498 0.0787495 0.266429 4.16728 0.258789 9.21102V65.9151C0.26625 70.9586 4.35478 75.0472 9.39852 75.0548H12.1963V77.8526C12.2037 82.8961 16.2923 86.9847 21.336 86.9923H48.9928L60.4379 98.4374C60.9154 98.9149 61.6391 99.0567 62.2659 98.803C62.8926 98.5419 63.3029 97.9301 63.3029 97.2512V86.9923H107.695V97.2512C107.695 97.9301 108.105 98.5419 108.732 98.803C109.359 99.0567 110.083 98.9149 110.56 98.4374L122.005 86.9923H149.662C154.706 86.9849 158.794 82.8963 158.802 77.8526V75.0548H161.6C166.643 75.0474 170.732 70.9588 170.739 65.9151V9.21102C170.732 4.16748 166.643 0.0789291 161.6 0.0712891H161.603ZM61.6256 83.6338C61.1779 83.6338 60.7526 83.8128 60.4393 84.1262C60.1259 84.4396 59.9469 84.8648 59.9469 85.3125V93.1987L50.8744 84.1262C50.561 83.8128 50.1357 83.6338 49.6881 83.6338H21.336C18.1427 83.6338 15.5539 81.0448 15.5539 77.8516V75.0539H107.696V83.634L61.6256 83.6338ZM155.447 77.8516C155.447 81.045 152.858 83.6338 149.665 83.6338H125.364L133.944 75.0537H155.446L155.447 77.8516ZM167.384 65.9142C167.384 69.1075 164.795 71.6963 161.602 71.6963H133.25C132.802 71.6963 132.377 71.8754 132.064 72.1887L111.054 93.1987V73.3748C111.054 72.4496 110.3 71.6961 109.375 71.6961H9.39795C6.20462 71.6961 3.6158 69.1071 3.6158 65.914V9.20987C3.6158 6.01654 6.20481 3.42773 9.39795 3.42773H161.602C164.795 3.42773 167.384 6.01674 167.384 9.20987V65.9142Z" fill="#1071FF"/>
<path d="M38.1973 33.0566L30.2887 31.9076L26.7596 24.7526V24.7451C26.4761 24.1781 25.8942 23.8125 25.2525 23.8125C24.6183 23.8125 24.0289 24.1781 23.7529 24.7451L20.2163 31.9076L12.3227 33.0566C11.6885 33.1461 11.1587 33.5863 10.9648 34.1907C10.7633 34.8025 10.9275 35.4665 11.3826 35.9141L17.0977 41.4875L15.7622 49.3514C15.6577 49.9781 15.9188 50.6197 16.4336 50.9928C16.9485 51.3658 17.6349 51.4181 18.2019 51.1196L25.2599 47.4115L32.3254 51.1196H32.3328C32.5716 51.2465 32.8402 51.3136 33.1088 51.3136C33.6012 51.3136 34.0713 51.0972 34.3921 50.7167C34.7129 50.3362 34.8472 49.8363 34.7651 49.3514L33.4147 41.4875L39.1298 35.9141C39.5849 35.4665 39.7491 34.8025 39.5551 34.1981C39.3536 33.5863 38.8314 33.1461 38.1972 33.0566L38.1973 33.0566ZM30.4379 39.6969C30.0425 40.0849 29.8634 40.6444 29.9604 41.1891L30.8856 46.5759L26.0359 44.0318L26.0284 44.0243C25.536 43.7781 24.9615 43.7781 24.4691 44.0243L19.6194 46.561L20.5893 41.1891C20.6863 40.637 20.5072 40.0849 20.1118 39.6969L16.1799 35.8844L21.5816 35.101C22.1262 35.0189 22.6037 34.6757 22.8499 34.1832L25.2672 29.2889L27.6771 34.1832C27.9233 34.6757 28.3933 35.0189 28.9454 35.101L34.3471 35.8844L30.4379 39.6969Z" fill="#1071FF"/>
<path d="M68.3179 33.0566L60.4243 31.9076L56.8877 24.7526V24.7451C56.6042 24.1781 56.0223 23.8125 55.3806 23.8125C54.7465 23.8125 54.157 24.1781 53.881 24.7451L50.3444 31.9002L42.4508 33.0491L42.4433 33.0566C41.8166 33.1461 41.2943 33.5863 41.0929 34.1981C40.8989 34.8025 41.063 35.4665 41.5182 35.9142L47.2333 41.4875L45.8828 49.3514C45.7784 49.9781 46.0321 50.6197 46.5543 50.9928C47.0691 51.3658 47.7555 51.4181 48.3226 51.1196L55.388 47.4116L62.446 51.1196C63.0131 51.4181 63.6995 51.3659 64.2143 50.9928C64.7291 50.6198 64.9902 49.9781 64.8783 49.3514L63.5279 41.4875L69.243 35.9142H69.2504C69.7056 35.4665 69.8697 34.8025 69.6683 34.1981C69.4743 33.5863 68.952 33.1461 68.3178 33.0566H68.3179ZM60.5586 39.6969C60.1631 40.0849 59.9766 40.6444 60.0736 41.1891L60.9988 46.5684L56.1491 44.0318V44.0243C55.6567 43.7781 55.0747 43.7781 54.5823 44.0243L49.7326 46.561L50.6578 41.1816V41.1891C50.7547 40.6444 50.5757 40.0849 50.1728 39.6969L46.3006 35.8844L51.7023 35.101C52.247 35.0189 52.717 34.6757 52.9707 34.1833L55.388 29.2889L57.8053 34.1833H57.7978C58.044 34.6757 58.514 35.0189 59.0587 35.101L64.4604 35.8844L60.5586 39.6969Z" fill="#1071FF"/>
<path d="M98.437 33.0566L90.5433 31.9076L86.9919 24.7451C86.7084 24.1781 86.1264 23.8125 85.4848 23.8125C84.8431 23.8125 84.2612 24.1781 83.9777 24.7451L80.4486 31.9002L72.5549 33.0491L72.5475 33.0566C71.9207 33.1387 71.391 33.5863 71.1896 34.1907C70.9956 34.8025 71.1597 35.4665 71.6148 35.9141L77.3299 41.4875L75.987 49.3514C75.8751 49.9781 76.1362 50.6197 76.651 50.9928C77.1658 51.3658 77.8522 51.4181 78.4193 51.1196L85.4996 47.4116L92.5651 51.1196C92.8038 51.2465 93.0724 51.3136 93.3485 51.3136H93.341C93.8409 51.3136 94.3109 51.0972 94.6243 50.7167C94.9451 50.3362 95.0794 49.8363 94.9974 49.3514L93.6544 41.4875L99.3695 35.9141H99.362C99.8246 35.4665 99.9888 34.8025 99.7948 34.1907C99.5933 33.5863 99.0636 33.1387 98.4294 33.0566L98.437 33.0566ZM90.6776 39.6969C90.2747 40.0849 90.0956 40.6444 90.1926 41.1891L91.1178 46.5684L86.2681 44.0317L86.2607 44.0243C85.7757 43.7781 85.1938 43.7781 84.7088 44.0243L79.8591 46.561L80.7843 41.1816L80.7768 41.1891C80.8738 40.6444 80.6947 40.0849 80.2918 39.6969L76.4123 35.8843L81.8139 35.101C82.366 35.0189 82.8361 34.6757 83.0823 34.1832L85.4996 29.2814L87.9169 34.1758V34.1833C88.1631 34.6757 88.6331 35.0189 89.1852 35.101L94.5869 35.8844L90.6776 39.6969Z" fill="#1071FF"/>
<path d="M128.551 33.0566L120.657 31.9076L117.12 24.7526V24.7451C116.844 24.1781 116.255 23.8125 115.621 23.8125C114.979 23.8125 114.397 24.1781 114.114 24.7451L110.577 31.9002L102.683 33.0491V33.0566C102.049 33.1461 101.527 33.5863 101.333 34.1981C101.131 34.8025 101.296 35.4665 101.751 35.9142L107.466 41.4875L106.115 49.3514C106.011 49.9781 106.272 50.6197 106.787 50.9928C107.302 51.3659 107.988 51.4181 108.555 51.1196L115.613 47.4116L122.679 51.1196C122.925 51.2465 123.193 51.3136 123.462 51.3136C123.954 51.3136 124.425 51.0973 124.745 50.7168C125.066 50.3362 125.2 49.8364 125.118 49.3514L123.768 41.4876L129.483 35.9142C129.938 35.4665 130.102 34.8025 129.908 34.1982C129.707 33.5864 129.185 33.1462 128.55 33.0566L128.551 33.0566ZM120.791 39.6969C120.396 40.0849 120.217 40.6445 120.314 41.1891L121.239 46.5684L116.389 44.0318V44.0243C115.897 43.7781 115.315 43.7781 114.822 44.0243L109.973 46.561L110.898 41.1816V41.1891C110.995 40.6445 110.808 40.0849 110.413 39.6969L106.533 35.8844L111.935 35.101H111.942C112.487 35.0189 112.957 34.6757 113.196 34.1833L115.613 29.2889L118.03 34.1833C118.284 34.6757 118.754 35.0189 119.299 35.101L124.7 35.8844L120.791 39.6969Z" fill="#1071FF"/>
<path d="M158.671 33.0566L150.785 31.9076L147.248 24.7526V24.7451C146.972 24.1781 146.383 23.8125 145.749 23.8125C145.107 23.8125 144.525 24.1781 144.241 24.7451L140.712 31.9076L132.811 33.0566C132.177 33.1461 131.655 33.5863 131.461 34.1981C131.259 34.8025 131.424 35.4665 131.879 35.9141L137.594 41.4875L136.236 49.3514C136.154 49.8363 136.288 50.3362 136.609 50.7167C136.93 51.0972 137.4 51.3136 137.892 51.3136C138.161 51.3136 138.429 51.2464 138.668 51.1196L145.734 47.4115L152.792 51.1196H152.799C153.366 51.4181 154.053 51.3658 154.567 50.9928C155.082 50.6197 155.343 49.9781 155.231 49.3514L153.888 41.4875L159.604 35.9141C160.059 35.4665 160.223 34.8025 160.029 34.1907C159.827 33.5863 159.305 33.1461 158.671 33.0566H158.671ZM150.912 39.6969C150.516 40.0849 150.337 40.6444 150.427 41.1891L151.352 46.5684L146.502 44.0318V44.0243C146.017 43.7706 145.428 43.7706 144.943 44.0243L140.093 46.5684L141.018 41.1816L141.011 41.1891C141.108 40.6444 140.929 40.0849 140.533 39.6969L136.654 35.8844L142.055 35.101C142.6 35.0189 143.078 34.6757 143.324 34.1833L145.741 29.2889L148.173 34.1833C148.419 34.6757 148.889 35.0189 149.442 35.101L154.843 35.8844L150.912 39.6969Z" fill="#1071FF"/>
</svg>
