<svg width="14" height="14" viewBox="0 0 14 14" fill="none" xmlns="http://www.w3.org/2000/svg">
<path d="M6.99967 0.333984C3.31967 0.333984 0.333008 3.32065 0.333008 7.00065C0.333008 10.6807 3.31967 13.6673 6.99967 13.6673C10.6797 13.6673 13.6663 10.6807 13.6663 7.00065C13.6663 3.32065 10.6797 0.333984 6.99967 0.333984ZM6.99967 12.334C4.05967 12.334 1.66634 9.94065 1.66634 7.00065C1.66634 4.06065 4.05967 1.66732 6.99967 1.66732C9.93967 1.66732 12.333 4.06065 12.333 7.00065C12.333 9.94065 9.93967 12.334 6.99967 12.334ZM10.0597 4.05398L5.66634 8.44732L3.93967 6.72732L2.99967 7.66732L5.66634 10.334L10.9997 5.00065L10.0597 4.05398Z" fill="#00893A"/>
</svg>
