<svg width="77" height="76" viewBox="0 0 77 76" fill="none" xmlns="http://www.w3.org/2000/svg">
<path d="M13.6402 0.599609C10.3952 0.599609 7.86524 1.88863 6.2977 3.73461C4.73016 5.58059 4.0977 7.87334 4.0977 9.94961C4.0977 12.9609 5.46584 15.3774 7.20516 17.0996C7.3289 17.2234 7.46297 17.3402 7.59016 17.4571H2.5027C1.48524 17.4605 0.663676 18.2821 0.660156 19.2997V37.9997C0.663594 39.0137 1.48516 39.8387 2.5027 39.8422H4.0977V73.5568C4.10114 74.5708 4.9227 75.3958 5.94024 75.3993H71.0602C71.5518 75.4027 72.0296 75.2137 72.3802 74.8665C72.7308 74.5193 72.9302 74.0484 72.9302 73.5568V39.8422H74.4977C75.5152 39.8388 76.3367 39.0138 76.3402 37.9997V19.2997C76.3437 18.3544 75.6321 17.5568 74.6902 17.4571C74.6249 17.4537 74.5631 17.4537 74.4977 17.4571H69.4103C69.5375 17.3403 69.6715 17.2234 69.7953 17.0996C71.5347 15.3775 72.9303 12.9609 72.9303 9.94964C72.9303 7.87336 72.2703 5.58061 70.7028 3.73464C69.1354 1.88866 66.6054 0.599636 63.3603 0.599636C58.3828 0.599636 52.8654 3.59709 47.933 7.19964C44.1002 9.99777 40.7177 13.1602 38.5003 16.0269C36.2831 13.1601 32.9006 9.99751 29.0676 7.19964C24.1347 3.59709 18.6176 0.599636 13.6403 0.599636L13.6402 0.599609ZM13.6402 4.31215C16.9849 4.31215 22.289 6.83186 26.8948 10.1972C30.0608 12.5072 32.9345 15.2056 34.8698 17.4572H14.1625C12.5915 16.5875 10.9828 15.6146 9.81752 14.4597C8.55596 13.2119 7.78252 11.8953 7.78252 9.9497C7.78252 8.65372 8.20878 7.17911 9.10252 6.12715C9.99282 5.07529 11.3025 4.31215 13.64 4.31215H13.6402ZM63.3602 4.31215C65.6977 4.31215 67.004 5.07528 67.8977 6.12715C68.7914 7.17903 69.2177 8.65372 69.2177 9.9497C69.2177 11.8953 68.4718 13.2119 67.2102 14.4597C66.0449 15.6147 64.4362 16.5875 62.8652 17.4572H42.1307C44.066 15.2056 46.9432 12.5072 50.1057 10.1972C54.712 6.83186 60.0162 4.31215 63.3602 4.31215ZM4.37296 21.1422H13.4757C13.5926 21.1525 13.7129 21.1525 13.8332 21.1422H36.6586V36.1567H4.37318L4.37296 21.1422ZM40.343 21.1422H62.8375C63.1366 21.2178 63.446 21.2178 63.745 21.1422H72.655V36.1567H40.3423L40.343 21.1422ZM7.78296 39.8422H36.6575V71.7149H7.78296V39.8422ZM40.343 39.8422H69.2175V71.7149H40.343V39.8422Z" fill="white"/>
</svg>
